<svg width="128" height="16" viewBox="0 0 128 16" fill="none" xmlns="http://www.w3.org/2000/svg">
<path d="M12.416 10.608V14.448H10.928V12H1.712L1.696 14.448H0.208L0.224 10.608H0.768C1.472 10.5653 1.968 10.0107 2.256 8.944C2.544 7.86667 2.72 6.352 2.784 4.4L2.896 0.799999H10.768V10.608H12.416ZM4.192 4.544C4.13867 6.12267 4.01067 7.42933 3.808 8.464C3.616 9.49867 3.30133 10.2133 2.864 10.608H9.184V2.192H4.272L4.192 4.544ZM17.3714 3.44C18.5447 3.44 19.4407 3.728 20.0594 4.304C20.6887 4.88 21.0034 5.73867 21.0034 6.88V12H19.5474V10.88C19.2914 11.2747 18.9234 11.5787 18.4434 11.792C17.974 11.9947 17.414 12.096 16.7634 12.096C15.814 12.096 15.0514 11.8667 14.4754 11.408C13.91 10.9493 13.6274 10.3467 13.6274 9.6C13.6274 8.85333 13.8994 8.256 14.4434 7.808C14.9874 7.34933 15.8514 7.12 17.0354 7.12H19.4674V6.816C19.4674 6.15467 19.2754 5.648 18.8914 5.296C18.5074 4.944 17.942 4.768 17.1954 4.768C16.694 4.768 16.2034 4.85333 15.7234 5.024C15.2434 5.184 14.838 5.40267 14.5074 5.68L13.8674 4.528C14.3047 4.176 14.8274 3.90933 15.4354 3.728C16.0434 3.536 16.6887 3.44 17.3714 3.44ZM17.0194 10.912C17.606 10.912 18.1127 10.784 18.5394 10.528C18.966 10.2613 19.2754 9.888 19.4674 9.408V8.224H17.0994C15.798 8.224 15.1474 8.66133 15.1474 9.536C15.1474 9.96267 15.3127 10.2987 15.6434 10.544C15.974 10.7893 16.4327 10.912 17.0194 10.912ZM23.7693 3.52H25.3053V7.12H30.1373V3.52H31.6733V12H30.1373V8.448H25.3053V12H23.7693V3.52ZM34.6599 3.52H36.1959V7.12H41.0279V3.52H42.5639V12H41.0279V8.448H36.1959V12H34.6599V3.52ZM49.3745 6.4C50.4412 6.41067 51.2572 6.656 51.8225 7.136C52.3878 7.616 52.6705 8.29333 52.6705 9.168C52.6705 10.0853 52.3612 10.7947 51.7425 11.296C51.1345 11.7867 50.2598 12.0267 49.1185 12.016L45.5505 12V3.52H47.0865V6.384L49.3745 6.4ZM53.9345 3.52H55.4705V12H53.9345V3.52ZM49.0065 10.848C49.6998 10.8587 50.2225 10.72 50.5745 10.432C50.9372 10.144 51.1185 9.71733 51.1185 9.152C51.1185 8.59733 50.9425 8.192 50.5905 7.936C50.2385 7.68 49.7105 7.54667 49.0065 7.536L47.0865 7.504V10.832L49.0065 10.848ZM66.1208 7.808C66.1208 7.92533 66.1101 8.08 66.0888 8.272H59.2088C59.3048 9.01867 59.6301 9.62133 60.1848 10.08C60.7501 10.528 61.4488 10.752 62.2808 10.752C63.2941 10.752 64.1101 10.4107 64.7288 9.728L65.5768 10.72C65.1928 11.168 64.7128 11.5093 64.1368 11.744C63.5714 11.9787 62.9368 12.096 62.2328 12.096C61.3368 12.096 60.5421 11.9147 59.8488 11.552C59.1554 11.1787 58.6168 10.6613 58.2328 10C57.8594 9.33867 57.6728 8.592 57.6728 7.76C57.6728 6.93867 57.8541 6.19733 58.2168 5.536C58.5901 4.87467 59.0968 4.36267 59.7368 4C60.3874 3.62667 61.1181 3.44 61.9288 3.44C62.7394 3.44 63.4594 3.62667 64.0888 4C64.7288 4.36267 65.2248 4.87467 65.5768 5.536C65.9394 6.19733 66.1208 6.95467 66.1208 7.808ZM61.9288 4.736C61.1928 4.736 60.5741 4.96 60.0728 5.408C59.5821 5.856 59.2941 6.44267 59.2088 7.168H64.6488C64.5634 6.45333 64.2701 5.872 63.7688 5.424C63.2781 4.96533 62.6648 4.736 61.9288 4.736ZM76.0965 8.416H74.3365V12H72.8005V3.52H74.3365V7.104H76.1285L78.8805 3.52H80.5285L77.3125 7.6L80.7525 12H78.9445L76.0965 8.416ZM85.2308 3.44C86.4041 3.44 87.3001 3.728 87.9188 4.304C88.5481 4.88 88.8628 5.73867 88.8628 6.88V12H87.4068V10.88C87.1508 11.2747 86.7828 11.5787 86.3028 11.792C85.8334 11.9947 85.2734 12.096 84.6228 12.096C83.6734 12.096 82.9108 11.8667 82.3348 11.408C81.7694 10.9493 81.4868 10.3467 81.4868 9.6C81.4868 8.85333 81.7588 8.256 82.3028 7.808C82.8468 7.34933 83.7108 7.12 84.8948 7.12H87.3268V6.816C87.3268 6.15467 87.1348 5.648 86.7508 5.296C86.3668 4.944 85.8014 4.768 85.0548 4.768C84.5534 4.768 84.0628 4.85333 83.5828 5.024C83.1028 5.184 82.6974 5.40267 82.3668 5.68L81.7268 4.528C82.1641 4.176 82.6868 3.90933 83.2948 3.728C83.9028 3.536 84.5481 3.44 85.2308 3.44ZM84.8788 10.912C85.4654 10.912 85.9721 10.784 86.3988 10.528C86.8254 10.2613 87.1348 9.888 87.3268 9.408V8.224H84.9588C83.6574 8.224 83.0068 8.66133 83.0068 9.536C83.0068 9.96267 83.1721 10.2987 83.5028 10.544C83.8334 10.7893 84.2921 10.912 84.8788 10.912ZM96.1246 3.44C96.946 3.44 97.682 3.62133 98.3326 3.984C98.9833 4.34667 99.49 4.85333 99.8526 5.504C100.226 6.15467 100.413 6.90667 100.413 7.76C100.413 8.61333 100.226 9.37067 99.8526 10.032C99.49 10.6827 98.9833 11.1893 98.3326 11.552C97.682 11.9147 96.946 12.096 96.1246 12.096C95.5166 12.096 94.9566 11.9787 94.4446 11.744C93.9433 11.5093 93.5166 11.168 93.1646 10.72V15.104H91.6286V3.52H93.1006V4.864C93.442 4.39467 93.874 4.04267 94.3966 3.808C94.9193 3.56267 95.4953 3.44 96.1246 3.44ZM95.9966 10.752C96.5406 10.752 97.026 10.6293 97.4526 10.384C97.89 10.128 98.2313 9.776 98.4766 9.328C98.7326 8.86933 98.8606 8.34667 98.8606 7.76C98.8606 7.17333 98.7326 6.656 98.4766 6.208C98.2313 5.74933 97.89 5.39733 97.4526 5.152C97.026 4.90667 96.5406 4.784 95.9966 4.784C95.4633 4.784 94.978 4.912 94.5406 5.168C94.114 5.41333 93.7726 5.76 93.5166 6.208C93.2713 6.656 93.1486 7.17333 93.1486 7.76C93.1486 8.34667 93.2713 8.86933 93.5166 9.328C93.762 9.776 94.1033 10.128 94.5406 10.384C94.978 10.6293 95.4633 10.752 95.9966 10.752ZM108.652 4.864H105.548V12H104.012V4.864H100.908V3.52H108.652V4.864ZM114.046 6.4C115.113 6.41067 115.929 6.656 116.494 7.136C117.06 7.616 117.342 8.29333 117.342 9.168C117.342 10.0853 117.033 10.7947 116.414 11.296C115.806 11.7867 114.932 12.0267 113.79 12.016L110.222 12V3.52H111.758V6.384L114.046 6.4ZM118.606 3.52H120.142V12H118.606V3.52ZM113.678 10.848C114.372 10.8587 114.894 10.72 115.246 10.432C115.609 10.144 115.79 9.71733 115.79 9.152C115.79 8.59733 115.614 8.192 115.262 7.936C114.91 7.68 114.382 7.54667 113.678 7.536L111.758 7.504V10.832L113.678 10.848Z" fill="#37373F"/>
<path d="M125.833 3.104L127.737 4.176L127.241 5.056L125.305 3.92L125.321 6.096H124.361L124.377 3.92L122.441 5.056L121.945 4.176L123.865 3.104L121.945 2.048L122.441 1.152L124.377 2.288L124.361 0.127999H125.321L125.305 2.288L127.241 1.152L127.737 2.048L125.833 3.104Z" fill="#C94042"/>
</svg>
