<svg width="46" height="15" viewBox="0 0 46 15" fill="none" xmlns="http://www.w3.org/2000/svg">
<path d="M12.416 10.608V14.448H10.928V12H1.712L1.696 14.448H0.208L0.224 10.608H0.768C1.472 10.5653 1.968 10.0107 2.256 8.944C2.544 7.86667 2.72 6.352 2.784 4.4L2.896 0.799999H10.768V10.608H12.416ZM4.192 4.544C4.13867 6.12267 4.01067 7.42933 3.808 8.464C3.616 9.49867 3.30133 10.2133 2.864 10.608H9.184V2.192H4.272L4.192 4.544ZM17.3714 3.44C18.5447 3.44 19.4407 3.728 20.0594 4.304C20.6887 4.88 21.0034 5.73867 21.0034 6.88V12H19.5474V10.88C19.2914 11.2747 18.9234 11.5787 18.4434 11.792C17.974 11.9947 17.414 12.096 16.7634 12.096C15.814 12.096 15.0514 11.8667 14.4754 11.408C13.91 10.9493 13.6274 10.3467 13.6274 9.6C13.6274 8.85333 13.8994 8.256 14.4434 7.808C14.9874 7.34933 15.8514 7.12 17.0354 7.12H19.4674V6.816C19.4674 6.15467 19.2754 5.648 18.8914 5.296C18.5074 4.944 17.942 4.768 17.1954 4.768C16.694 4.768 16.2034 4.85333 15.7234 5.024C15.2434 5.184 14.838 5.40267 14.5074 5.68L13.8674 4.528C14.3047 4.176 14.8274 3.90933 15.4354 3.728C16.0434 3.536 16.6887 3.44 17.3714 3.44ZM17.0194 10.912C17.606 10.912 18.1127 10.784 18.5394 10.528C18.966 10.2613 19.2754 9.888 19.4674 9.408V8.224H17.0994C15.798 8.224 15.1474 8.66133 15.1474 9.536C15.1474 9.96267 15.3127 10.2987 15.6434 10.544C15.974 10.7893 16.4327 10.912 17.0194 10.912ZM30.0893 4.864H26.9852V12H25.4493V4.864H22.3453V3.52H30.0893V4.864ZM34.6839 3.44C35.8572 3.44 36.7532 3.728 37.3719 4.304C38.0012 4.88 38.3159 5.73867 38.3159 6.88V12H36.8599V10.88C36.6039 11.2747 36.2359 11.5787 35.7559 11.792C35.2865 11.9947 34.7265 12.096 34.0759 12.096C33.1265 12.096 32.3639 11.8667 31.7879 11.408C31.2225 10.9493 30.9399 10.3467 30.9399 9.6C30.9399 8.85333 31.2119 8.256 31.7559 7.808C32.2999 7.34933 33.1639 7.12 34.3479 7.12H36.7799V6.816C36.7799 6.15467 36.5879 5.648 36.2039 5.296C35.8199 4.944 35.2545 4.768 34.5079 4.768C34.0065 4.768 33.5159 4.85333 33.0359 5.024C32.5559 5.184 32.1505 5.40267 31.8199 5.68L31.1799 4.528C31.6172 4.176 32.1399 3.90933 32.7479 3.728C33.3559 3.536 34.0012 3.44 34.6839 3.44ZM34.3319 10.912C34.9185 10.912 35.4252 10.784 35.8519 10.528C36.2785 10.2613 36.5879 9.888 36.7799 9.408V8.224H34.4119C33.1105 8.224 32.4599 8.66133 32.4599 9.536C32.4599 9.96267 32.6252 10.2987 32.9559 10.544C33.2865 10.7893 33.7452 10.912 34.3319 10.912Z" fill="#37373F"/>
<path d="M43.7858 3.104L45.6898 4.176L45.1938 5.056L43.2578 3.92L43.2738 6.096H42.3138L42.3298 3.92L40.3938 5.056L39.8978 4.176L41.8178 3.104L39.8978 2.048L40.3938 1.152L42.3298 2.288L42.3138 0.127999H43.2738L43.2578 2.288L45.1938 1.152L45.6898 2.048L43.7858 3.104Z" fill="#C94042"/>
</svg>
