<svg width="52" height="14" viewBox="0 0 52 14" fill="none" xmlns="http://www.w3.org/2000/svg">
<path d="M8.808 11.608V13H0.68V1.8H8.584V3.192H2.28V6.632H7.896V7.992H2.28V11.608H8.808ZM21.7828 4.44C22.8494 4.44 23.6921 4.74933 24.3108 5.368C24.9401 5.98667 25.2548 6.904 25.2548 8.12V13H23.7188V8.296C23.7188 7.47467 23.5268 6.856 23.1428 6.44C22.7694 6.024 22.2308 5.816 21.5268 5.816C20.7481 5.816 20.1294 6.06133 19.6708 6.552C19.2121 7.032 18.9828 7.72533 18.9828 8.632V13H17.4468V8.296C17.4468 7.47467 17.2548 6.856 16.8708 6.44C16.4974 6.024 15.9588 5.816 15.2548 5.816C14.4761 5.816 13.8574 6.06133 13.3988 6.552C12.9401 7.032 12.7108 7.72533 12.7108 8.632V13H11.1748V4.52H12.6468V5.784C12.9561 5.34667 13.3614 5.016 13.8628 4.792C14.3641 4.55733 14.9348 4.44 15.5748 4.44C16.2361 4.44 16.8228 4.57333 17.3348 4.84C17.8468 5.10667 18.2414 5.496 18.5188 6.008C18.8388 5.51733 19.2814 5.13333 19.8468 4.856C20.4228 4.57867 21.0681 4.44 21.7828 4.44ZM31.169 4.44C32.3423 4.44 33.2383 4.728 33.857 5.304C34.4863 5.88 34.801 6.73867 34.801 7.88V13H33.345V11.88C33.089 12.2747 32.721 12.5787 32.241 12.792C31.7717 12.9947 31.2117 13.096 30.561 13.096C29.6117 13.096 28.849 12.8667 28.273 12.408C27.7077 11.9493 27.425 11.3467 27.425 10.6C27.425 9.85333 27.697 9.256 28.241 8.808C28.785 8.34933 29.649 8.12 30.833 8.12H33.265V7.816C33.265 7.15467 33.073 6.648 32.689 6.296C32.305 5.944 31.7397 5.768 30.993 5.768C30.4917 5.768 30.001 5.85333 29.521 6.024C29.041 6.184 28.6357 6.40267 28.305 6.68L27.665 5.528C28.1023 5.176 28.625 4.90933 29.233 4.728C29.841 4.536 30.4863 4.44 31.169 4.44ZM30.817 11.912C31.4037 11.912 31.9103 11.784 32.337 11.528C32.7637 11.2613 33.073 10.888 33.265 10.408V9.224H30.897C29.5957 9.224 28.945 9.66133 28.945 10.536C28.945 10.9627 29.1103 11.2987 29.441 11.544C29.7717 11.7893 30.2303 11.912 30.817 11.912ZM37.6435 4.52H39.1795V13H37.6435V4.52ZM38.4115 2.888C38.1128 2.888 37.8622 2.792 37.6595 2.6C37.4675 2.408 37.3715 2.17333 37.3715 1.896C37.3715 1.61867 37.4675 1.384 37.6595 1.192C37.8622 0.989333 38.1128 0.888 38.4115 0.888C38.7102 0.888 38.9555 0.984 39.1475 1.176C39.3502 1.35733 39.4515 1.58667 39.4515 1.864C39.4515 2.152 39.3502 2.39733 39.1475 2.6C38.9555 2.792 38.7102 2.888 38.4115 2.888ZM42.1123 1.128H43.6483V13H42.1123V1.128Z" fill="#37373F"/>
<path d="M49.317 4.104L51.221 5.176L50.725 6.056L48.789 4.92L48.805 7.096H47.845L47.861 4.92L45.925 6.056L45.429 5.176L47.349 4.104L45.429 3.048L45.925 2.152L47.861 3.288L47.845 1.128H48.805L48.789 3.288L50.725 2.152L51.221 3.048L49.317 4.104Z" fill="#C94042"/>
</svg>
