<svg width="41" height="12" viewBox="0 0 41 12" fill="none" xmlns="http://www.w3.org/2000/svg">
<path d="M0.744 0.799999H2.328V9.44L8.952 0.799999H10.424V12H8.856V3.376L2.216 12H0.744V0.799999ZM23.4359 3.52V12H22.0439V5.808L18.8759 11.04H18.2039L15.0679 5.792V12H13.6599V3.52H15.2439L18.5719 9.248L21.9959 3.52H23.4359ZM33.2255 3.52V12H31.8495V9.312H29.3855H29.2095L27.3535 12H25.7055L27.7695 9.104C27.1295 8.912 26.6388 8.59733 26.2975 8.16C25.9562 7.712 25.7855 7.15733 25.7855 6.496C25.7855 5.52533 26.1162 4.78933 26.7775 4.288C27.4388 3.776 28.3508 3.52 29.5135 3.52H33.2255ZM27.3535 6.544C27.3535 7.10933 27.5295 7.53067 27.8815 7.808C28.2442 8.07467 28.7828 8.208 29.4975 8.208H31.8495V4.864H29.5615C28.0895 4.864 27.3535 5.424 27.3535 6.544Z" fill="#37373F"/>
<path d="M38.9264 3.104L40.8304 4.176L40.3344 5.056L38.3984 3.92L38.4144 6.096H37.4544L37.4704 3.92L35.5344 5.056L35.0384 4.176L36.9584 3.104L35.0384 2.048L35.5344 1.152L37.4704 2.288L37.4544 0.127999H38.4144L38.3984 2.288L40.3344 1.152L40.8304 2.048L38.9264 3.104Z" fill="#C94042"/>
</svg>
