<svg width="80" height="16" viewBox="0 0 80 16" fill="none" xmlns="http://www.w3.org/2000/svg">
<path d="M9.44 2.192H5.6V12H4.032V2.192H0.208V0.799999H9.44V2.192ZM17.9176 7.808C17.9176 7.92533 17.907 8.08 17.8856 8.272H11.0056C11.1016 9.01867 11.427 9.62133 11.9816 10.08C12.547 10.528 13.2456 10.752 14.0776 10.752C15.091 10.752 15.907 10.4107 16.5256 9.728L17.3736 10.72C16.9896 11.168 16.5096 11.5093 15.9336 11.744C15.3683 11.9787 14.7336 12.096 14.0296 12.096C13.1336 12.096 12.339 11.9147 11.6456 11.552C10.9523 11.1787 10.4136 10.6613 10.0296 10C9.65629 9.33867 9.46963 8.592 9.46963 7.76C9.46963 6.93867 9.65096 6.19733 10.0136 5.536C10.387 4.87467 10.8936 4.36267 11.5336 4C12.1843 3.62667 12.915 3.44 13.7256 3.44C14.5363 3.44 15.2563 3.62667 15.8856 4C16.5256 4.36267 17.0216 4.87467 17.3736 5.536C17.7363 6.19733 17.9176 6.95467 17.9176 7.808ZM13.7256 4.736C12.9896 4.736 12.371 4.96 11.8696 5.408C11.379 5.856 11.091 6.44267 11.0056 7.168H16.4456C16.3603 6.45333 16.067 5.872 15.5656 5.424C15.075 4.96533 14.4616 4.736 13.7256 4.736ZM27.4399 3.52V12H25.9039V4.864H22.2559L22.1599 6.752C22.1065 7.89333 22.0052 8.848 21.8559 9.616C21.7065 10.3733 21.4612 10.9813 21.1199 11.44C20.7785 11.8987 20.3039 12.128 19.6959 12.128C19.4185 12.128 19.1039 12.08 18.7519 11.984L18.8479 10.688C18.9865 10.72 19.1145 10.736 19.2319 10.736C19.6585 10.736 19.9785 10.5493 20.1919 10.176C20.4052 9.80267 20.5439 9.36 20.6079 8.848C20.6719 8.336 20.7305 7.60533 20.7839 6.656L20.9279 3.52H27.4399ZM38.0739 7.808C38.0739 7.92533 38.0632 8.08 38.0419 8.272H31.1619C31.2579 9.01867 31.5832 9.62133 32.1379 10.08C32.7032 10.528 33.4019 10.752 34.2339 10.752C35.2472 10.752 36.0632 10.4107 36.6819 9.728L37.5299 10.72C37.1459 11.168 36.6659 11.5093 36.0899 11.744C35.5245 11.9787 34.8899 12.096 34.1859 12.096C33.2899 12.096 32.4952 11.9147 31.8019 11.552C31.1085 11.1787 30.5699 10.6613 30.1859 10C29.8125 9.33867 29.6259 8.592 29.6259 7.76C29.6259 6.93867 29.8072 6.19733 30.1699 5.536C30.5432 4.87467 31.0499 4.36267 31.6899 4C32.3405 3.62667 33.0712 3.44 33.8819 3.44C34.6925 3.44 35.4125 3.62667 36.0419 4C36.6819 4.36267 37.1779 4.87467 37.5299 5.536C37.8925 6.19733 38.0739 6.95467 38.0739 7.808ZM33.8819 4.736C33.1459 4.736 32.5272 4.96 32.0259 5.408C31.5352 5.856 31.2472 6.44267 31.1619 7.168H36.6019C36.5165 6.45333 36.2232 5.872 35.7219 5.424C35.2312 4.96533 34.6179 4.736 33.8819 4.736ZM51.1608 7.744C51.1608 9.056 50.7234 10.0907 49.8488 10.848C48.9741 11.6053 47.7421 12.0267 46.1528 12.112V15.104H44.6488V12.112C43.0594 12.0267 41.8274 11.6107 40.9528 10.864C40.0888 10.1067 39.6568 9.06667 39.6568 7.744C39.6568 6.432 40.0888 5.408 40.9528 4.672C41.8168 3.936 43.0488 3.52533 44.6488 3.44V0.127999H46.1528V3.44C47.7421 3.52533 48.9741 3.94133 49.8488 4.688C50.7234 5.424 51.1608 6.44267 51.1608 7.744ZM41.1768 7.744C41.1768 8.65067 41.4648 9.36 42.0408 9.872C42.6274 10.384 43.4968 10.6773 44.6488 10.752V4.8C43.4861 4.87467 42.6168 5.16267 42.0408 5.664C41.4648 6.16533 41.1768 6.85867 41.1768 7.744ZM46.1528 10.768C48.4781 10.5867 49.6408 9.57867 49.6408 7.744C49.6408 6.848 49.3474 6.15467 48.7608 5.664C48.1741 5.16267 47.3048 4.87467 46.1528 4.8V10.768ZM56.9638 12.096C56.1211 12.096 55.3638 11.9093 54.6918 11.536C54.0198 11.1627 53.4918 10.6507 53.1078 10C52.7344 9.33867 52.5478 8.592 52.5478 7.76C52.5478 6.928 52.7344 6.18667 53.1078 5.536C53.4918 4.87467 54.0198 4.36267 54.6918 4C55.3638 3.62667 56.1211 3.44 56.9638 3.44C57.8064 3.44 58.5584 3.62667 59.2198 4C59.8918 4.36267 60.4144 4.87467 60.7878 5.536C61.1718 6.18667 61.3638 6.928 61.3638 7.76C61.3638 8.592 61.1718 9.33867 60.7878 10C60.4144 10.6507 59.8918 11.1627 59.2198 11.536C58.5584 11.9093 57.8064 12.096 56.9638 12.096ZM56.9638 10.752C57.5078 10.752 57.9931 10.6293 58.4198 10.384C58.8571 10.128 59.1984 9.776 59.4438 9.328C59.6891 8.86933 59.8118 8.34667 59.8118 7.76C59.8118 7.17333 59.6891 6.656 59.4438 6.208C59.1984 5.74933 58.8571 5.39733 58.4198 5.152C57.9931 4.90667 57.5078 4.784 56.9638 4.784C56.4198 4.784 55.9291 4.90667 55.4918 5.152C55.0651 5.39733 54.7238 5.74933 54.4678 6.208C54.2224 6.656 54.0998 7.17333 54.0998 7.76C54.0998 8.34667 54.2224 8.86933 54.4678 9.328C54.7238 9.776 55.0651 10.128 55.4918 10.384C55.9291 10.6293 56.4198 10.752 56.9638 10.752ZM63.5818 3.52H65.1178V7.12H69.9498V3.52H71.4858V12H69.9498V8.448H65.1178V12H63.5818V3.52Z" fill="#37373F"/>
<path d="M77.1764 3.104L79.0804 4.176L78.5844 5.056L76.6484 3.92L76.6644 6.096H75.7044L75.7204 3.92L73.7844 5.056L73.2884 4.176L75.2084 3.104L73.2884 2.048L73.7844 1.152L75.7204 2.288L75.7044 0.127999H76.6644L76.6484 2.288L78.5844 1.152L79.0804 2.048L77.1764 3.104Z" fill="#C94042"/>
</svg>
