<svg width="203" height="20" viewBox="0 0 203 20" fill="none" xmlns="http://www.w3.org/2000/svg">
<path d="M33.104 4.1V16H31.438V5.579H24.536V16H22.853V4.1H33.104ZM40.4019 16.102C39.5066 16.102 38.7019 15.9037 37.9879 15.507C37.2739 15.1103 36.7129 14.5663 36.3049 13.875C35.9082 13.1723 35.7099 12.379 35.7099 11.495C35.7099 10.611 35.9082 9.82333 36.3049 9.132C36.7129 8.42933 37.2739 7.88533 37.9879 7.5C38.7019 7.10333 39.5066 6.905 40.4019 6.905C41.2972 6.905 42.0962 7.10333 42.7989 7.5C43.5129 7.88533 44.0682 8.42933 44.4649 9.132C44.8729 9.82333 45.0769 10.611 45.0769 11.495C45.0769 12.379 44.8729 13.1723 44.4649 13.875C44.0682 14.5663 43.5129 15.1103 42.7989 15.507C42.0962 15.9037 41.2972 16.102 40.4019 16.102ZM40.4019 14.674C40.9799 14.674 41.4956 14.5437 41.9489 14.283C42.4136 14.011 42.7762 13.637 43.0369 13.161C43.2976 12.6737 43.4279 12.1183 43.4279 11.495C43.4279 10.8717 43.2976 10.322 43.0369 9.846C42.7762 9.35867 42.4136 8.98467 41.9489 8.724C41.4956 8.46333 40.9799 8.333 40.4019 8.333C39.8239 8.333 39.3026 8.46333 38.8379 8.724C38.3846 8.98467 38.0219 9.35867 37.7499 9.846C37.4892 10.322 37.3589 10.8717 37.3589 11.495C37.3589 12.1183 37.4892 12.6737 37.7499 13.161C38.0219 13.637 38.3846 14.011 38.8379 14.283C39.3026 14.5437 39.8239 14.674 40.4019 14.674ZM50.9355 12.192H49.0655V16H47.4335V6.99H49.0655V10.798H50.9695L53.8935 6.99H55.6445L52.2275 11.325L55.8825 16H53.9615L50.9355 12.192ZM60.6407 6.905C61.8873 6.905 62.8393 7.211 63.4967 7.823C64.1653 8.435 64.4997 9.34733 64.4997 10.56V16H62.9527V14.81C62.6807 15.2293 62.2897 15.5523 61.7797 15.779C61.281 15.9943 60.686 16.102 59.9947 16.102C58.986 16.102 58.1757 15.8583 57.5637 15.371C56.963 14.8837 56.6627 14.2433 56.6627 13.45C56.6627 12.6567 56.9517 12.022 57.5297 11.546C58.1077 11.0587 59.0257 10.815 60.2837 10.815H62.8677V10.492C62.8677 9.78933 62.6637 9.251 62.2557 8.877C61.8477 8.503 61.247 8.316 60.4537 8.316C59.921 8.316 59.3997 8.40667 58.8897 8.588C58.3797 8.758 57.949 8.99033 57.5977 9.285L56.9177 8.061C57.3823 7.687 57.9377 7.40367 58.5837 7.211C59.2297 7.007 59.9153 6.905 60.6407 6.905ZM60.2667 14.844C60.89 14.844 61.4283 14.708 61.8817 14.436C62.335 14.1527 62.6637 13.756 62.8677 13.246V11.988H60.3517C58.969 11.988 58.2777 12.4527 58.2777 13.382C58.2777 13.8353 58.4533 14.1923 58.8047 14.453C59.156 14.7137 59.6433 14.844 60.2667 14.844ZM72.168 11.308C72.7687 11.4667 73.2333 11.7217 73.562 12.073C73.8907 12.4243 74.055 12.8607 74.055 13.382C74.055 13.9147 73.8737 14.3907 73.511 14.81C73.1483 15.218 72.644 15.541 71.998 15.779C71.3633 16.0057 70.6493 16.119 69.856 16.119C69.1873 16.119 68.53 16.034 67.884 15.864C67.2493 15.6827 66.6827 15.4277 66.184 15.099L66.677 13.858C67.1077 14.13 67.6007 14.3453 68.156 14.504C68.7113 14.6513 69.2723 14.725 69.839 14.725C70.6097 14.725 71.2217 14.5947 71.675 14.334C72.1397 14.062 72.372 13.6993 72.372 13.246C72.372 12.8267 72.185 12.5037 71.811 12.277C71.4483 12.0503 70.9327 11.937 70.264 11.937H68.615V10.764H70.145C70.757 10.764 71.2387 10.6563 71.59 10.441C71.9413 10.2257 72.117 9.931 72.117 9.557C72.117 9.149 71.9073 8.83167 71.488 8.605C71.08 8.37833 70.5247 8.265 69.822 8.265C68.9267 8.265 67.9803 8.49733 66.983 8.962L66.541 7.704C67.6403 7.14867 68.7907 6.871 69.992 6.871C70.7173 6.871 71.369 6.973 71.947 7.177C72.525 7.381 72.9783 7.67 73.307 8.044C73.6357 8.418 73.8 8.843 73.8 9.319C73.8 9.761 73.6527 10.1577 73.358 10.509C73.0633 10.8603 72.6667 11.1267 72.168 11.308ZM79.7491 6.905C80.9957 6.905 81.9477 7.211 82.6051 7.823C83.2737 8.435 83.6081 9.34733 83.6081 10.56V16H82.0611V14.81C81.7891 15.2293 81.3981 15.5523 80.8881 15.779C80.3894 15.9943 79.7944 16.102 79.1031 16.102C78.0944 16.102 77.2841 15.8583 76.6721 15.371C76.0714 14.8837 75.7711 14.2433 75.7711 13.45C75.7711 12.6567 76.0601 12.022 76.6381 11.546C77.2161 11.0587 78.1341 10.815 79.3921 10.815H81.9761V10.492C81.9761 9.78933 81.7721 9.251 81.3641 8.877C80.9561 8.503 80.3554 8.316 79.5621 8.316C79.0294 8.316 78.5081 8.40667 77.9981 8.588C77.4881 8.758 77.0574 8.99033 76.7061 9.285L76.0261 8.061C76.4907 7.687 77.0461 7.40367 77.6921 7.211C78.3381 7.007 79.0237 6.905 79.7491 6.905ZM79.3751 14.844C79.9984 14.844 80.5367 14.708 80.9901 14.436C81.4434 14.1527 81.7721 13.756 81.9761 13.246V11.988H79.4601C78.0774 11.988 77.3861 12.4527 77.3861 13.382C77.3861 13.8353 77.5617 14.1923 77.9131 14.453C78.2644 14.7137 78.7517 14.844 79.3751 14.844ZM93.2618 8.418H89.9638V16H88.3318V8.418H85.0338V6.99H93.2618V8.418ZM99.0956 10.05C100.24 10.0613 101.113 10.322 101.714 10.832C102.314 11.342 102.615 12.0617 102.615 12.991C102.615 13.9657 102.286 14.7193 101.629 15.252C100.983 15.7733 100.053 16.0283 98.8406 16.017L94.9306 16V6.99H96.5626V10.033L99.0956 10.05ZM98.7046 14.776C99.4413 14.7873 99.9966 14.64 100.371 14.334C100.756 14.028 100.949 13.5747 100.949 12.974C100.949 12.3847 100.762 11.954 100.388 11.682C100.025 11.41 99.4639 11.2683 98.7046 11.257L96.5626 11.223V14.759L98.7046 14.776ZM116.958 9.829C117.763 10.0217 118.369 10.3673 118.777 10.866C119.197 11.3533 119.406 11.9823 119.406 12.753C119.406 13.7843 119.027 14.5833 118.267 15.15C117.519 15.7167 116.426 16 114.986 16H109.546V4.1H114.663C115.967 4.1 116.981 4.36633 117.706 4.899C118.443 5.42033 118.811 6.174 118.811 7.16C118.811 7.806 118.647 8.35567 118.318 8.809C118.001 9.26233 117.548 9.60233 116.958 9.829ZM111.229 9.336H114.544C115.372 9.336 116.001 9.17167 116.431 8.843C116.873 8.51433 117.094 8.03267 117.094 7.398C117.094 6.76333 116.873 6.28167 116.431 5.953C115.989 5.613 115.36 5.443 114.544 5.443H111.229V9.336ZM114.952 14.657C116.777 14.657 117.689 13.977 117.689 12.617C117.689 11.937 117.457 11.4383 116.992 11.121C116.539 10.7923 115.859 10.628 114.952 10.628H111.229V14.657H114.952ZM125.902 16.102C124.984 16.102 124.162 15.9037 123.437 15.507C122.723 15.1103 122.162 14.5663 121.754 13.875C121.346 13.1723 121.142 12.379 121.142 11.495C121.142 10.611 121.346 9.82333 121.754 9.132C122.162 8.42933 122.723 7.88533 123.437 7.5C124.162 7.10333 124.984 6.905 125.902 6.905C126.718 6.905 127.443 7.06933 128.078 7.398C128.724 7.72667 129.222 8.20267 129.574 8.826L128.333 9.625C128.049 9.19433 127.698 8.87133 127.279 8.656C126.859 8.44067 126.395 8.333 125.885 8.333C125.295 8.333 124.763 8.46333 124.287 8.724C123.822 8.98467 123.454 9.35867 123.182 9.846C122.921 10.322 122.791 10.8717 122.791 11.495C122.791 12.1297 122.921 12.6907 123.182 13.178C123.454 13.654 123.822 14.0223 124.287 14.283C124.763 14.5437 125.295 14.674 125.885 14.674C126.395 14.674 126.859 14.5663 127.279 14.351C127.698 14.1357 128.049 13.8127 128.333 13.382L129.574 14.164C129.222 14.7873 128.724 15.269 128.078 15.609C127.443 15.9377 126.718 16.102 125.902 16.102ZM139.697 11.546C139.697 11.6707 139.685 11.835 139.663 12.039H132.353C132.455 12.8323 132.8 13.4727 133.39 13.96C133.99 14.436 134.733 14.674 135.617 14.674C136.693 14.674 137.56 14.3113 138.218 13.586L139.119 14.64C138.711 15.116 138.201 15.4787 137.589 15.728C136.988 15.9773 136.314 16.102 135.566 16.102C134.614 16.102 133.769 15.9093 133.033 15.524C132.296 15.1273 131.724 14.5777 131.316 13.875C130.919 13.1723 130.721 12.379 130.721 11.495C130.721 10.6223 130.913 9.83467 131.299 9.132C131.695 8.42933 132.234 7.88533 132.914 7.5C133.605 7.10333 134.381 6.905 135.243 6.905C136.104 6.905 136.869 7.10333 137.538 7.5C138.218 7.88533 138.745 8.42933 139.119 9.132C139.504 9.83467 139.697 10.6393 139.697 11.546ZM135.243 8.282C134.461 8.282 133.803 8.52 133.271 8.996C132.749 9.472 132.443 10.0953 132.353 10.866H138.133C138.042 10.1067 137.73 9.489 137.198 9.013C136.676 8.52567 136.025 8.282 135.243 8.282ZM148.851 19.298C148.205 18.2553 147.706 17.0597 147.355 15.711C147.004 14.351 146.828 12.8947 146.828 11.342C146.828 9.78933 147.004 8.333 147.355 6.973C147.706 5.60167 148.205 4.406 148.851 3.386H150.398C149.718 4.576 149.219 5.82267 148.902 7.126C148.585 8.42933 148.426 9.83467 148.426 11.342C148.426 12.8493 148.585 14.2547 148.902 15.558C149.219 16.8613 149.718 18.108 150.398 19.298H148.851ZM155.611 4.1V16H153.928V5.579H151.242V4.1H155.611ZM162.77 9.098C163.938 9.21133 164.827 9.574 165.439 10.186C166.051 10.7867 166.357 11.5573 166.357 12.498C166.357 13.178 166.187 13.7957 165.847 14.351C165.507 14.895 164.997 15.3313 164.317 15.66C163.649 15.9773 162.827 16.136 161.852 16.136C161.002 16.136 160.186 16.0113 159.404 15.762C158.622 15.5013 157.982 15.1443 157.483 14.691L158.265 13.348C158.673 13.7333 159.195 14.045 159.829 14.283C160.464 14.5097 161.138 14.623 161.852 14.623C162.736 14.623 163.422 14.436 163.909 14.062C164.408 13.688 164.657 13.1723 164.657 12.515C164.657 11.8577 164.414 11.3477 163.926 10.985C163.439 10.6223 162.702 10.441 161.716 10.441H160.764V9.251L163.756 5.579H158.027V4.1H165.881V5.256L162.77 9.098ZM178.296 13.076H176.035V16H174.386V13.076H167.773V11.886L173.859 4.1H175.695L169.864 11.614H174.437V9.03H176.035V11.614H178.296V13.076ZM179.043 19.298C179.723 18.108 180.222 16.8613 180.539 15.558C180.868 14.2547 181.032 12.8493 181.032 11.342C181.032 9.83467 180.868 8.42933 180.539 7.126C180.222 5.82267 179.723 4.576 179.043 3.386H180.59C181.247 4.406 181.752 5.596 182.103 6.956C182.454 8.316 182.63 9.778 182.63 11.342C182.63 12.8947 182.454 14.351 182.103 15.711C181.752 17.071 181.247 18.2667 180.59 19.298H179.043Z" fill="#5286EC"/>
<path fill-rule="evenodd" clip-rule="evenodd" d="M196.956 14.7841L192.226 10.2581C192.155 10.1927 192.098 10.1124 192.059 10.0226C192.02 9.93278 192 9.83546 192 9.73701C192 9.63857 192.02 9.54124 192.059 9.45143C192.098 9.36161 192.155 9.28136 192.226 9.21593C192.376 9.07686 192.571 9 192.773 9C192.975 9 193.17 9.07686 193.32 9.21593L197.5 13.2209L201.686 9.21593C201.835 9.07691 202.029 9.00002 202.23 9.00002C202.431 9.00002 202.625 9.07691 202.774 9.21593C202.845 9.28141 202.902 9.36172 202.941 9.45158C202.98 9.54144 203 9.63882 203 9.73731C203 9.8358 202.98 9.93318 202.941 10.023C202.902 10.1129 202.845 10.1932 202.774 10.2587L198.05 14.7841C197.898 14.9235 197.703 15.0003 197.5 15C197.299 15.0013 197.105 14.9243 196.956 14.7841Z" fill="#C7C7C7"/>
<path fill-rule="evenodd" clip-rule="evenodd" d="M4.9557 14.7841L0.225863 10.2581C0.154844 10.1927 0.0980035 10.1124 0.0590805 10.0226C0.0201575 9.93278 0 9.83546 0 9.73701C0 9.63857 0.0201575 9.54124 0.0590805 9.45143C0.0980035 9.36161 0.154844 9.28136 0.225863 9.21593C0.376464 9.07686 0.571367 9 0.773135 9C0.974903 9 1.16952 9.07686 1.32012 9.21593L5.50014 13.2209L9.68581 9.21593C9.8353 9.07691 10.0291 9.00002 10.23 9.00002C10.4309 9.00002 10.6247 9.07691 10.7741 9.21593C10.8452 9.28141 10.902 9.36172 10.9409 9.45158C10.9798 9.54144 11 9.63882 11 9.73731C11 9.8358 10.9798 9.93318 10.9409 10.023C10.902 10.1129 10.8452 10.1932 10.7741 10.2587L6.04996 14.7841C5.8984 14.9235 5.70283 15.0003 5.50014 15C5.29901 15.0013 5.10451 14.9243 4.9557 14.7841Z" fill="#C7C7C7"/>
</svg>
