<svg width="86" height="13" viewBox="0 0 86 13" fill="none" xmlns="http://www.w3.org/2000/svg">
<path d="M14.096 6.384C14.096 7.86667 13.5787 9.02933 12.544 9.872C11.5093 10.7147 10.048 11.168 8.16 11.232V12.416H6.672V11.232C4.784 11.1573 3.31733 10.6987 2.272 9.856C1.23733 9.01333 0.72 7.856 0.72 6.384C0.72 4.90133 1.23733 3.73867 2.272 2.896C3.31733 2.05333 4.784 1.59467 6.672 1.52V0.384H8.16V1.52C10.0373 1.59467 11.4933 2.05867 12.528 2.912C13.5733 3.75467 14.096 4.912 14.096 6.384ZM8.16 9.984C9.58933 9.89867 10.6773 9.552 11.424 8.944C12.1813 8.32533 12.56 7.46667 12.56 6.368C12.56 5.29067 12.176 4.448 11.408 3.84C10.6507 3.22133 9.568 2.86933 8.16 2.784V9.984ZM2.272 6.384C2.272 7.472 2.65067 8.32533 3.408 8.944C4.176 9.552 5.264 9.89867 6.672 9.984V2.784C5.24267 2.86933 4.14933 3.216 3.392 3.824C2.64533 4.432 2.272 5.28533 2.272 6.384ZM19.3245 3.44C20.4978 3.44 21.3938 3.728 22.0125 4.304C22.6418 4.88 22.9565 5.73867 22.9565 6.88V12H21.5005V10.88C21.2445 11.2747 20.8765 11.5787 20.3965 11.792C19.9272 11.9947 19.3672 12.096 18.7165 12.096C17.7672 12.096 17.0045 11.8667 16.4285 11.408C15.8632 10.9493 15.5805 10.3467 15.5805 9.6C15.5805 8.85333 15.8525 8.256 16.3965 7.808C16.9405 7.34933 17.8045 7.12 18.9885 7.12H21.4205V6.816C21.4205 6.15467 21.2285 5.648 20.8445 5.296C20.4605 4.944 19.8952 4.768 19.1485 4.768C18.6472 4.768 18.1565 4.85333 17.6765 5.024C17.1965 5.184 16.7912 5.40267 16.4605 5.68L15.8205 4.528C16.2578 4.176 16.7805 3.90933 17.3885 3.728C17.9965 3.536 18.6418 3.44 19.3245 3.44ZM18.9725 10.912C19.5592 10.912 20.0658 10.784 20.4925 10.528C20.9192 10.2613 21.2285 9.888 21.4205 9.408V8.224H19.0525C17.7512 8.224 17.1005 8.66133 17.1005 9.536C17.1005 9.96267 17.2658 10.2987 17.5965 10.544C17.9272 10.7893 18.3858 10.912 18.9725 10.912ZM35.4984 3.52V12H34.1064V5.808L30.9384 11.04H30.2664L27.1304 5.792V12H25.7224V3.52H27.3064L30.6344 9.248L34.0584 3.52H35.4984ZM38.488 3.52H40.024V9.696L45.224 3.52H46.616V12H45.08V5.824L39.896 12H38.488V3.52ZM56.8774 3.52V12H55.3414V4.864H51.6934L51.5974 6.752C51.544 7.89333 51.4427 8.848 51.2934 9.616C51.144 10.3733 50.8987 10.9813 50.5574 11.44C50.216 11.8987 49.7414 12.128 49.1334 12.128C48.856 12.128 48.5414 12.08 48.1894 11.984L48.2854 10.688C48.424 10.72 48.552 10.736 48.6694 10.736C49.096 10.736 49.416 10.5493 49.6294 10.176C49.8427 9.80267 49.9814 9.36 50.0454 8.848C50.1094 8.336 50.168 7.60533 50.2214 6.656L50.3654 3.52H56.8774ZM59.8474 3.52H61.3834V9.696L66.5834 3.52H67.9754V12H66.4394V5.824L61.2554 12H59.8474V3.52ZM77.7568 3.52V12H76.3808V9.312H73.9168H73.7408L71.8848 12H70.2368L72.3008 9.104C71.6608 8.912 71.1701 8.59733 70.8288 8.16C70.4874 7.712 70.3168 7.15733 70.3168 6.496C70.3168 5.52533 70.6474 4.78933 71.3088 4.288C71.9701 3.776 72.8821 3.52 74.0448 3.52H77.7568ZM71.8848 6.544C71.8848 7.10933 72.0608 7.53067 72.4128 7.808C72.7754 8.07467 73.3141 8.208 74.0288 8.208H76.3808V4.864H74.0928C72.6208 4.864 71.8848 5.424 71.8848 6.544Z" fill="#37373F"/>
<path d="M83.4576 3.104L85.3616 4.176L84.8656 5.056L82.9296 3.92L82.9456 6.096H81.9856L82.0016 3.92L80.0656 5.056L79.5696 4.176L81.4896 3.104L79.5696 2.048L80.0656 1.152L82.0016 2.288L81.9856 0.127999H82.9456L82.9296 2.288L84.8656 1.152L85.3616 2.048L83.4576 3.104Z" fill="#C94042"/>
</svg>
